<?xml version="1.0" encoding="utf-8"?>
<!-- Generator: Adobe Illustrator 19.2.1, SVG Export Plug-In . SVG Version: 6.00 Build 0)  -->
<svg version="1.1" id="Layer_1" xmlns="http://www.w3.org/2000/svg" xmlns:xlink="http://www.w3.org/1999/xlink" x="0px" y="0px"
	 viewBox="0 0 1242 2065" style="enable-background:new 0 0 1242 2065;" xml:space="preserve">
<style type="text/css">
	.st0{fill:#359DD7;}
</style>
<g>
	<g>
		<g transform="translate(-50,-1500)">
			<path class="st0" d="M409.5,1699.5c-1,0.4-2.2,0.7-3.4,1c-1.5,0.4-2.4,1.8-2.4,3.3c0,0.1,0,0.4,0.1,0.6c0.4,1.6,2.1,2.7,3.7,2.2
				c1.3-0.3,2.8-0.7,4-1.3c1.6-0.6,2.4-2.4,1.8-4C412.9,1699.7,411.1,1698.8,409.5,1699.5z M422.7,1698.5
				c8.2-7.5,12.7-18.5,12.1-29.5l0,0c-0.1-1.8-1.6-3-3.3-3c-1.6,0.1-3,1.6-3,3.3c0.6,9.1-3.1,18.2-10,24.5c-0.7,0.6-1,1.6-1,2.5
				c0,0.7,0.3,1.3,0.7,1.9C419.5,1699.5,421.4,1699.7,422.7,1698.5z M323.4,1669c-1.8,0.1-3,1.6-3,3.3l0.9,14.2c0.1,1.8,1.6,3,3.3,3
				c1.6-0.1,3-1.6,3-3.3l-0.9-14.2C326.6,1670.1,325.1,1669,323.4,1669z M402.3,1719.5c26.4-1.6,46.7-24.8,45-51.6
				c-1.5-24.5-20.6-43.5-44-45.5l-23.6-21c-4.3-3.9-10-5.8-15.8-5.5c-5.8,0.3-11.2,3-15.1,7.5l-47,53.8l-5.2,0.3
				c-18.8,1.2-33.1,17.6-32.1,36.7l0.3,4.9l-2.2,2.7c-11.2,12.8-16.3,29.1-15.2,45c1,16,7.9,31.5,20.7,42.8l32.5,29.2L270,1854
				c-0.6,0.6-0.7,1.5-0.7,2.2s0.4,1.6,1,2.2l43,38.3c1.3,1.2,3.3,1,4.3-0.3l8.9-10.3c5.7-6.6,5.8-16.3,0.6-22.8l5.8-6.7
				c0,0.9-0.1,1.6-0.1,1.6c0,0.7,0.3,1.3,0.7,1.8c0.6,0.6,1.3,1,2.1,1l57.1,4.3c1.6,0.1,3.1-1.2,3.3-2.8l1-13.6
				c0.6-8.7-5.1-16.4-13.1-18.5l2.2-30.7c0.1-2.2,0.1-4.3-0.1-6.4l13.7-0.9c6.6-0.4,12.5-3.4,16.9-8.4c4.3-4.9,6.4-11.3,6.1-17.9
				c-0.4-6.6-3.3-12.7-8.2-17c-4.9-4.3-11.2-6.6-17.7-6.1l-16.6,1l-0.7-12.2l11.5-13.3C394.6,1719.5,398.4,1719.7,402.3,1719.5z
				 M440.9,1667.3c0,0.3,0,0.7,0.1,1c1.5,23.3-16.1,43.4-39.2,44.9c-1.5,0.1-2.8,0.1-4.3,0c-10.6-9.7-15.5-23.4-13.3-35.5
				c3.9-0.4,7.5-2.4,10-5.4c2.8-3.3,4.2-7.3,4-11.6c0-0.7-0.1-1.3-0.3-2.1c12.4-6.7,29.1-3.9,41.6,7.3
				C440.2,1666.4,440.6,1666.9,440.9,1667.3z M383.1,1671.5c-2.5,0.1-5.1-0.7-7-2.4c-1.9-1.8-3.1-4.2-3.3-6.7
				c-0.1-2.7,0.7-5.2,2.4-7.2c1.6-1.9,4-3.1,6.7-3.3c2.5-0.1,5.1,0.7,7,2.4c1.9,1.8,3.1,4.2,3.3,6.7c0.1,2.7-0.7,5.2-2.4,7.2
				C388,1670.1,385.6,1671.3,383.1,1671.5z M380.2,1610.2l13.9,12.4c-18.5,2.1-33.6,14.6-39.8,31.5l-13,0.7L380.2,1610.2z
				 M353.5,1607.4c2.7-3.1,6.6-5.1,10.7-5.4c4.2-0.3,8.1,1,11.2,3.9l-18.2,20.9l-11.6-10.4L353.5,1607.4z M341.6,1621.1l11.6,10.4
				l-4.6,5.2l-11.6-10.4L341.6,1621.1z M333,1631.1l11.6,10.4l-11.9,13.7l-21.9,1.3L333,1631.1z M292.3,1664.5
				c3.1,5.8,2.4,13.1-2.1,18.3c-4.8,5.4-12.5,6.9-18.8,3.9C273.5,1675.8,281.7,1667,292.3,1664.5z M291.8,1689.8l16.4,14.8l1.2,18.6
				c0,0.3,0,0.4,0,0.7l-36.4,2.2c0-0.3-2.1-32.8-2.1-33C277.9,1695.8,285.8,1694.5,291.8,1689.8z M308.4,1730.3
				c-2.4,6.9-8.5,11.9-16.1,12.5c-7.6,0.4-14.5-3.9-17.6-10.4L308.4,1730.3z M272.3,1784.8c-22.2-19.8-24.9-53.7-6.7-76.8l1,17.7
				c0.9,13.6,12.5,24,26,23.3c13.4-0.9,23.7-12.7,23-26.2l-1-16.9l34.5-2.1c1.8-0.1,3-1.6,3-3.3c-0.1-1.8-1.6-3-3.3-3l-36.2,2.2
				l-16.3-14.5c4.6-6.4,5.5-14.6,2.7-21.8l53.5-3.3c-0.9,4.3-1.3,8.9-1,13.6c0.7,13,6.6,24.5,15.4,32.8l-51.6,59.1l-8.1-7.2
				c-1.3-1.2-3.3-1-4.3,0.3c-1.2,1.3-1,3.3,0.3,4.5l36.7,32.8c-1.6,1-3,2.4-4.3,3.9c-3.6,4-5.4,8.9-5.8,14l-23.4,1.5L272.3,1784.8z
				 M373.4,1795.3c-4.5-0.6-8.5-3-11.3-6.7c-2.8-3.7-4-8.2-3.4-12.8c0.3-1.9,0.9-3.9,1.6-5.5c4.9,1.5,9.2,4.5,12.8,8.5
				c3.9,4.6,6.3,10.1,6.7,16.1C377.7,1795.4,375.5,1795.6,373.4,1795.3z M379.6,1801.4l-1.2,17.6l-22.7-1.6c0-0.6,0-1.2,0-1.9
				c-0.3-4.9-1.6-9.5-3.7-13.9l7.5-6.6c3.6,3.6,8.2,5.8,13.3,6.6C375,1801.8,377.4,1801.8,379.6,1801.4z M359.7,1763.7
				c-1.8-0.4-3.4-0.7-5.4-0.9l-1.9-0.1l20.9-24l0.6,8.5C374,1747.3,359.8,1763.5,359.7,1763.7z M354,1769L354,1769
				c-0.7,1.9-1.2,3.9-1.5,6c-0.1,1.5-0.3,3.1-0.1,4.6c0.3,3.7,1.3,7.2,3.1,10.4l-7,6.1c-1.3-1.6-2.7-3.3-4.3-4.6l-9.4-8.5l12.7-14.5
				L354,1769z M345.9,1831.4c-1.6-0.7-3-1.6-4.3-2.8c-7-6.3-7.8-17.3-1.5-24.5c1.2-1.3,2.5-2.4,3.9-3.3c3.1,4.3,5.1,9.5,5.4,15.1
				C349.8,1821.2,348.6,1826.6,345.9,1831.4z M314.9,1890l-38.2-34.2l3.3-3.7l38.2,34.2L314.9,1890z M320.7,1866
				c4.5,4,5.1,10.9,1.5,15.7l-38.2-34.2l14.2-16.3l27.4,24.5l-5.1,5.8C319.4,1862.8,319.5,1864.8,320.7,1866z M329.7,1850.9
				l-27.4-24.5l4.2-4.9l23.6-1.5c0.9,4.9,3.4,9.5,7.5,13.1c1.5,1.3,3.1,2.4,4.8,3.3L329.7,1850.9z M390.1,1859.3l-50.9-3.9l0.3-5.1
				l50.9,3.9L390.1,1859.3z M390.8,1847.9l-47.1-3.6l3.4-3.9c4.2-4.9,7-10.7,8.1-16.9l22.8,1.8l-0.6,7.8c-0.1,1.8,1.2,3.3,2.8,3.4
				C386.2,1836.9,390.8,1842,390.8,1847.9z M410.2,1754c3.7,3.3,5.8,7.8,6.1,12.7c0.3,4.9-1.3,9.7-4.5,13.4
				c-1.6,1.9-3.6,3.3-5.7,4.3l-2.1-34.2C406.2,1751.1,408.3,1752.3,410.2,1754z M379.3,1750.5c0,0,18-1,18.3-1l2.2,36.8
				c-0.3,0-15.4,0.9-15.4,0.9c-1.3-4.5-3.7-8.8-6.9-12.5c-3.3-3.9-7.3-6.9-11.8-8.9L379.3,1750.5z M330,1778.9l-10.1-9.1l51.8-59.2
				c3.7,2.7,8.1,4.9,12.5,6.4L330,1778.9z M357.6,1673.4c-1.5-23.3,16.1-43.4,39.2-44.9c19.4-1.2,36.4,11.2,42.4,28.9
				c-13.6-9.5-30.3-11.5-43.3-4.8c-0.7-1.2-1.6-2.2-2.7-3.1c-3.1-2.8-7.3-4.3-11.5-4c-4.2,0.3-8.2,2.2-10.9,5.4
				c-2.8,3.3-4.2,7.3-4,11.6c0.3,4.3,2.2,8.2,5.4,11c1.8,1.6,4,2.8,6.3,3.4c-0.4,3-0.6,6-0.4,8.9c0.6,8.9,4,17.9,10,25.5
				C371.1,1706.7,358.6,1691.8,357.6,1673.4z M56.9,1904.6l56.8-56.8c1.3-1.3,1.3-3.6,0-4.9c-0.7-0.7-1.5-1-2.4-1
				c-0.9,0-1.8,0.3-2.4,1l-56.8,56.8c-1.3,1.3-1.3,3.6,0,4.9C53.5,1906.1,55.6,1906.1,56.9,1904.6z M138.2,1823.6l6.9-6.9
				c1.3-1.3,1.3-3.6,0-4.9c-0.7-0.7-1.6-1-2.4-1c-0.9,0-1.8,0.3-2.4,1l-6.9,6.9c-1.3,1.3-1.3,3.6,0,4.9
				C134.6,1825,136.8,1825,138.2,1823.6z M222.6,1866.3c-0.9,0-1.8,0.3-2.4,1l-3.9,3.7c-1.3,1.3-1.3,3.6,0,4.9
				c1.3,1.3,3.6,1.3,4.9,0l3.9-3.7c1.3-1.3,1.3-3.6,0-4.9C224.4,1866.6,223.5,1866.3,222.6,1866.3z M195.8,1892.8
				c-0.9,0-1.8,0.3-2.4,1l-129.9,129c-1.3,1.3-1.3,3.6,0,4.9c1.3,1.3,3.6,1.3,4.9,0l129.9-129.2c1.3-1.3,1.3-3.6,0-4.9
				C197.5,1893.1,196.7,1892.8,195.8,1892.8z M131.6,1934.4c1.3,1.3,3.6,1.3,4.9,0l87.4-87.4c1.3-1.3,1.3-3.6,0-4.9
				c-0.7-0.7-1.5-1-2.4-1c-0.9,0-1.8,0.3-2.4,1l-87.4,87.4C130.3,1930.8,130.3,1933.1,131.6,1934.4z M69,1969.3
				c1.3,1.3,3.6,1.3,4.9,0l87.1-86.9c1.3-1.3,1.3-3.6,0-4.9c-0.7-0.7-1.5-1-2.4-1c-0.9,0-1.8,0.3-2.4,1l-87.1,86.9
				C67.6,1965.9,67.6,1968,69,1969.3z M98.8,1916.8l7-7c1.3-1.3,1.3-3.6,0-4.9c-0.7-0.7-1.5-1-2.4-1c-0.9,0-1.8,0.3-2.4,1l-7,7
				c-1.3,1.3-1.3,3.6,0,4.9C95.2,1918.2,97.5,1918.2,98.8,1916.8z M131,1884.6l58.5-58.5c1.3-1.3,1.3-3.6,0-4.9
				c-0.7-0.7-1.5-1-2.4-1c-0.9,0-1.8,0.3-2.4,1l-58.6,58.5c-1.3,1.3-1.3,3.6,0,4.9C127.5,1886,129.7,1886,131,1884.6z M90.6,1920.1
				c-0.7-0.7-1.5-1-2.4-1s-1.8,0.3-2.4,1l-60,59.8c-1.3,1.3-1.3,3.6,0,4.9c1.3,1.3,3.6,1.3,4.9,0l60-59.8
				C92,1923.7,92,1921.4,90.6,1920.1z M144.2,1839c1.3,1.3,3.6,1.3,4.9,0l40-40c1.3-1.3,1.3-3.6,0-4.9c-0.7-0.7-1.5-1-2.4-1
				c-0.9,0-1.8,0.3-2.4,1l-40,40C142.8,1835.4,142.8,1837.6,144.2,1839z M44.4,1943.5l20.3-20.3c1.3-1.3,1.3-3.6,0-4.9
				c-0.7-0.7-1.5-1-2.4-1c-0.9,0-1.8,0.3-2.4,1l-20.3,20.3c-1.3,1.3-1.3,3.6,0,4.9C41,1944.9,43,1944.9,44.4,1943.5z M175.2,1871.2
				c0.9-1.5,8.9-17,8.9-17s-13.3,8.9-16.1,10.9c-2.7,1.9-2.1,6.1,0,7.9C170.1,1874.8,174.3,1872.7,175.2,1871.2z"/>
		</g>
	</g>
	

	<path class="st0" d="M254.8,1793.8c-0.3,0-0.7-0.1-1-0.4l-11.3-10.6c-0.6-0.6-0.6-1.5,0-2.1c0.6-0.6,1.5-0.6,2.1,0l11.3,10.6
		c0.6,0.6,0.6,1.5,0,2.1C255.5,1793.7,255.1,1793.8,254.8,1793.8z"/>
	<path class="st0" d="M259.9,1788.7c-0.3,0-0.7-0.1-1-0.4l-11.3-10.6c-0.6-0.6-0.6-1.5,0-2.1c0.6-0.6,1.5-0.6,2.1,0l11.3,10.6
		c0.6,0.6,0.6,1.5,0,2.1C260.6,1788.6,260.3,1788.7,259.9,1788.7z"/>
</g>
<path class="st0" d="M1024.2,244h-11c-1.5,0-2.7,1.2-2.7,2.7s1.2,2.7,2.7,2.7h11c1.5,0,2.7-1.2,2.7-2.7S1025.7,244,1024.2,244z
	 M1085.2,146.1c15.9,0,28.7,12.8,28.7,28.7c0,1.5,1.2,2.7,2.7,2.7c1.5,0,2.7-1.2,2.7-2.7c0-18.8-15.3-34-34-34
	c-1.5,0-2.7,1.2-2.7,2.7C1082.5,144.9,1083.7,146.1,1085.2,146.1z M1085.2,158c9.2,0,16.6,7.5,16.6,16.6c0,1.5,1.2,2.7,2.7,2.7l0,0
	c1.5,0,2.7-1.2,2.7-2.7c0-12.2-9.9-22.1-22.1-22.1c-1.5,0-2.7,1.2-2.7,2.7C1082.5,156.8,1083.7,158,1085.2,158z M1026.6,234.7h-4.1
	l0,0c-1.5,0-2.7,1.2-2.7,2.7s1.2,2.7,2.7,2.7h4.1l0,0c1.5,0,2.7-1.2,2.7-2.7S1028.1,234.7,1026.6,234.7z M957,198.3h-8.2
	c-1.5,0-2.7,1.2-2.7,2.7s1.2,2.7,2.7,2.7h8.2c1.5,0,2.7-1.2,2.7-2.7C959.6,199.6,958.4,198.3,957,198.3z M969,186.3h-20l0,0
	c-1.5,0-2.7,1.2-2.7,2.7s1.2,2.7,2.7,2.7h20l0,0c1.5,0,2.7-1.2,2.7-2.7C971.6,187.5,970.4,186.3,969,186.3z M961.1,179.6h8.2
	c1.5,0,2.7-1.2,2.7-2.7s-1.2-2.7-2.7-2.7h-8.2c-1.5,0-2.7,1.2-2.7,2.7C958.4,178.5,959.6,179.6,961.1,179.6z M1072.9,291.3h8.2
	c1.5,0,2.7-1.2,2.7-2.7s-1.2-2.7-2.7-2.7h-8.2c-1.5,0-2.7,1.2-2.7,2.7S1071.3,291.3,1072.9,291.3z M1080.6,298h-20
	c-1.5,0-2.7,1.2-2.7,2.7s1.2,2.7,2.7,2.7h20c1.5,0,2.7-1.2,2.7-2.7C1083.4,299.1,1082.2,298,1080.6,298z M1019.3,220.5
	c-5.3,0-10.4,2.1-14.2,6c-7.8,7.8-7.8,20.6,0,28.4c3.8,3.8,8.9,6,14.2,6c5.3,0,10.4-2.1,14.2-6c3.8-3.8,6-8.9,6-14.2
	c0-5.3-2.1-10.4-6-14.2C1029.7,222.6,1024.6,220.5,1019.3,220.5z M1029.7,251c-2.7,2.7-6.4,4.3-10.4,4.3c-4,0-7.6-1.5-10.4-4.3
	c-5.8-5.8-5.6-15.1,0-20.8c2.7-2.7,6.4-4.3,10.4-4.3c4,0,7.6,1.5,10.4,4.3s4.3,6.4,4.3,10.4S1032.4,248.3,1029.7,251z M1105.1,289.8
	c-0.2-0.3-0.5-0.6-0.9-0.9l-27-16.5l-15.7-25.8c3.2-5.6,3.5-12.4,0.6-18.2c6.6,2.6,13.6,4,20.8,4l0,0c5.3,0,10.5-0.8,15.7-2.3
	c0.9-0.3,1.7-1.1,1.8-2c0.3-0.9,0-1.8-0.8-2.6l-10.1-10.1v-33.1c0.8-0.5,1.5-0.9,2.1-1.5c1.7-1.7,2.6-4,2.6-6.4
	c0-2.4-0.9-4.7-2.6-6.4c-3.4-3.4-9.5-3.4-12.8,0c-0.6,0.6-1.1,1.4-1.5,2.1h-33.1l-10.1-10.1c-0.6-0.6-1.7-0.9-2.6-0.8
	c-0.9,0.3-1.7,0.9-2,1.8c-3.7,12.2-2.9,25,1.8,36.3c-2.6-1.4-5.5-2.1-8.5-2.1c-3.4,0-6.7,0.9-9.6,2.7l-25.8-15.7l-16.5-27
	c-0.2-0.3-0.5-0.6-0.9-0.9l-27.6-16.8c-1.1-0.6-2.4-0.5-3.4,0.5l-36,36c-0.6,0.6-0.9,1.4-0.8,2.3c0.2,0.8,0.6,1.5,1.2,2l27,16.5
	l16.5,27c0.2,0.3,0.5,0.6,0.9,0.9l24.6,15l-1.2,1.2l0,0c-2.7,2.7-4.3,6.4-4.3,10.2c0,2.6,0.8,4.9,2,7l-13.1,4.9
	c-0.9,0.3-1.5,1.1-1.7,2c-0.2,0.9,0.2,1.8,0.8,2.4l38.8,38.8c0.5,0.5,1.2,0.8,2,0.8c0.2,0,0.3,0,0.6,0c0.9-0.2,1.7-0.8,2-1.7
	l4.9-13.1c2.1,1.2,4.6,2,7,2c3.8,0,7.5-1.5,10.2-4.3l1.2-1.2l15,24.6c0.2,0.3,0.5,0.6,0.9,0.9l27,16.5l16.5,27
	c0.5,0.8,1.2,1.2,2,1.2c0.2,0,0.2,0,0.3,0c0.8,0,1.4-0.3,2-0.8l36-36c0.9-0.9,1.1-2.3,0.5-3.4L1105.1,289.8z M1082.6,172.1
	c0.8-0.8,1.7-1.1,2.6-1.1c0.9,0,2,0.5,2.6,1.1c0.8,0.6,1.1,1.7,1.1,2.6c0,0.9-0.5,1.8-1.1,2.6c-1.4,1.4-3.8,1.4-5.2,0
	c-0.8-0.6-1.1-1.7-1.1-2.6C1081.6,173.8,1081.9,172.9,1082.6,172.1z M1080.9,182.8c0.9,0.5,2,0.8,3.1,0.9v26.7l-15.4-15.4
	L1080.9,182.8z M1076.2,175.9c0.2,1.1,0.5,2.1,0.9,3.1l-12.2,12.2l-15.4-15.4h26.7V175.9z M1033.6,167.7l58.6,58.6
	c-3.2,0.6-6.4,0.9-9.6,0.9l0,0c-13.3,0-26-5.2-35.3-14.7C1035.6,200.8,1030.6,183.8,1033.6,167.7z M909.4,175.9l32.2-32.2l22.7,13.9
	l-32.2,32.2L909.4,175.9z M935.9,193.8l32.2-32.2l13.9,22.7l-32.2,32.2L935.9,193.8z M953.8,220.3l32.2-32.2l22.7,13.9l-32.2,32.2
	L953.8,220.3z M961.9,265.2l10.8-4.1l2.9,2.9l-9.2,5.8L961.9,265.2z M970.3,273.8l9.2-5.8l4.3,4.3l-7.5,7.5L970.3,273.8z
	 M980.2,283.5l7.5-7.5l4.3,4.3l-5.8,9.2L980.2,283.5z M994.7,298l-4.6-4.6l5.8-9.2l2.9,2.9L994.7,298z M1003.9,284.6l-28.5-28.5
	c-1.7-1.7-2.7-4-2.7-6.4c0-1.5,0.5-2.9,1.1-4.3l40.9,40.8C1011,288,1006.8,287.5,1003.9,284.6z M1020.3,281.1L1020.3,281.1l-1.7,1.7
	l-41.5-41.5l36-36c5.2-5.2,14-5.2,19.2,0l22.3,22.3c5.3,5.3,5.3,13.9,0,19.1L1020.3,281.1z M1025.7,283.4l32.2-32.2l13.9,22.7
	l-32.2,32.2L1025.7,283.4z M1043.4,309.9l32.2-32.2l22.7,13.9l-32.2,32.2L1043.4,309.9z M1084,350.5l-13.9-22.7l32.2-32.2l13.9,22.7
	L1084,350.5z M1068.6,310.1h-8.2c-1.5,0-2.7,1.2-2.7,2.7s1.2,2.7,2.7,2.7h8.2c1.5,0,2.7-1.2,2.7-2.7S1070.1,310.1,1068.6,310.1z"/>
	
	<g transform="translate(330,-100)">
	
<path class="st0" d="M192.9,214.3l4.3-4.3l4.3,4.3c0.9,0.9,2.1,1.2,2.9,1.2c0.9,0,2.1-0.5,2.9-1.2c1.7-1.7,1.7-4.3,0-6L203,204
	l4.3-4.3c1.7-1.7,1.7-4.3,0-6s-4.3-1.7-6,0L197,198l-4.3-4.3c-1.7-1.7-4.3-1.7-6,0c-1.7,1.7-1.7,4.3,0,6l4.3,4.3l-4.3,4.3
	c-1.7,1.7-1.7,4.3,0,6c0.9,0.9,2.1,1.2,2.9,1.2C190.7,215.5,192.1,215,192.9,214.3z"/>
		</g>
	
<path class="st0" d="M1020.8,781.3l4.3-4.3l4.3,4.3c0.9,0.9,2.1,1.2,2.9,1.2c0.9,0,2.1-0.5,2.9-1.2c1.7-1.7,1.7-4.3,0-6l-4.3-4.3
	l4.3-4.3c1.7-1.7,1.7-4.3,0-6c-1.7-1.7-4.3-1.7-6,0l-4.3,4.3l-4.3-4.3c-1.7-1.7-4.3-1.7-6,0c-1.7,1.7-1.7,4.3,0,6l4.3,4.3l-4.3,4.3
	c-1.7,1.7-1.7,4.3,0,6c0.9,0.9,2.1,1.2,2.9,1.2C1018.7,782.5,1020.1,782,1020.8,781.3z"/>
<path class="st0" d="M945.6,1811.5H940v-5.6c0-2.2-1.4-3.7-3.7-3.7c-2.2,0-3.7,1.4-3.7,3.7v5.6h-5.6c-2.2,0-3.7,1.4-3.7,3.7
	c0,2.2,1.4,3.7,3.7,3.7h5.6v5.6c0,2.2,1.4,3.7,3.7,3.7c2.2,0,3.7-1.4,3.7-3.7v-5.6h5.6c2.2,0,3.7-1.4,3.7-3.7
	C949.4,1813.1,947.5,1811.5,945.6,1811.5z"/>
<path class="st0" d="M112.6,1401.5H107v-5.6c0-2.2-1.4-3.7-3.7-3.7c-2.2,0-3.7,1.4-3.7,3.7v5.6h-5.6c-2.2,0-3.7,1.4-3.7,3.7
	c0,2.2,1.4,3.7,3.7,3.7h5.6v5.6c0,2.2,1.4,3.7,3.7,3.7c2.2,0,3.7-1.4,3.7-3.7v-5.6h5.6c2.2,0,3.7-1.4,3.7-3.7
	C116.4,1403.1,114.5,1401.5,112.6,1401.5z"/>

	<g transform="translate(130,-480)">
		<path class="st0" d="M946.6,947.2c-4.6,2.3-7.9,6.5-9.2,11.3c-1.3,4.9-0.9,10,1.6,14.3c2.5,4.5,6.8,7.5,11.7,8.8
	c1.9,0.6,3.5,0.7,5.5,0.7c3.3,0,6.5-0.7,9.5-2.3c9.5-4.9,12.7-16.7,7.7-25.6C968.1,945.5,956.1,942.3,946.6,947.2z M963.2,975.7
	c-3.3,1.9-7.1,2-10.8,1.3c-3.5-1-6.8-3.3-8.4-6.5c-0.6-0.7-0.9-1.3-1.2-2l11.7-6.2c1.3-0.7,1.9-2.3,1.2-3.6c-0.9-1.3-2.5-1.9-3.8-1
	l-9.8,5.2c0-1,0.3-1.9,0.6-2.9c1.2-3.3,3.5-6.5,6.8-8.1c2.2-1,4.6-1.6,6.8-1.6c4.9,0,9.8,2.6,12.4,7.1c0.6,0.7,0.9,1.6,1.2,2.3
	c0,0,0,0-0.3,0L956,967c-1.3,0.7-1.9,2.3-1.2,3.6c0.6,0.7,1.3,1.3,2.5,1.3c0.6,0,0.9,0,1.3-0.3l11.7-6.2
	C970,969.5,967.5,973.4,963.2,975.7z"/>
	</g>
	
	<g transform="translate(1,-320)">
		<path class="st0" d="M227.4,844.4c3.7,0,6.6,2.9,6.6,6.6s-2.9,6.6-6.6,6.6s-6.6-2.9-6.6-6.6S223.9,844.4,227.4,844.4z"/>
	</g>
	
	<g transform="translate(615,-1105)">
	<path class="st0" d="M119,1169.4c0-8.4-6.6-15-15-15s-15,6.6-15,15s6.6,15,15,15S119,1177.8,119,1169.4z M104,1177.8
	c-4.7,0-8.4-3.6-8.4-8.4c0-4.7,3.6-8.4,8.4-8.4s8.4,3.6,8.4,8.4C112.4,1174.2,108.7,1177.8,104,1177.8z"/>
	</g>
<path class="st0" d="M757.4,1656c0-8.4-6.6-15-15-15s-15,6.6-15,15s6.6,15,15,15S757.4,1664.4,757.4,1656z M742.4,1664.4
	c-4.7,0-8.4-3.6-8.4-8.4c0-4.7,3.6-8.4,8.4-8.4s8.4,3.6,8.4,8.4S747.1,1664.4,742.4,1664.4z"/>
</svg>
